Music_FriendlyShop:
	musicheader 4, 1, Music_FriendlyShop_Ch1
	musicheader 1, 2, Music_FriendlyShop_Ch2
	musicheader 1, 3, Music_FriendlyShop_Ch3
	musicheader 1, 4, Music_FriendlyShop_Ch4

Music_FriendlyShop_Ch1:
	volume $77
	dutycycle $2
	notetype 12, $a7
	tempo 140
;Bar 1
	octave 4
	note C#, 1
	note __, 3
	note C#, 1
	note __, 3
	note C_, 1
	note __, 1
	note C_, 1
	note __, 3
	octave 3
	note B_, 1
	note __, 5
;Bar 2
	note A#, 5 ; WARNING: Rounded.
	note __, 7 ; WARNING: Rounded.
;Bar 3
	notetype 6, $87
	note D#, 1
	note __, 7
	octave 2
	note A#, 1
	note __, 3
	octave 3
	note D#, 1
	note __, 7
	octave 2
	note F#, 1
	note __, 7
	octave 3
	note D#, 1
	note __, 7
;Bar 4
	octave 2
	note F#, 1
	note __, 3
	note B_, 1
	note __, 3
	note F#, 1
	note __, 7
	octave 3
	note D#, 1
	note __, 7
	octave 2
	note B_, 1
	note __, 3
;Bar 5
	note A_, 1
	note __, 7
	note F#, 1
	note __, 3
	octave 3
	note D#, 1
	note __, 7
	octave 2
	note A_, 1
	note __, 7
	octave 3
	note D#, 1
	note __, 7
;Bar 6
	octave 2
	note F#, 1
	note __, 3
	note A_, 1
	note __, 3
	note F#, 1
	note __, 7
	octave 3
	note D#, 1
	note __, 7
	octave 2
	note A_, 1
	note __, 3
;Bar 7
	note G#, 1
	note __, 7
	note B_, 1
	note __, 3
	note E_, 1
	note __, 7
	note B_, 1
	note __, 7
	note G#, 1
	note __, 7
;Bar 8
	note F_, 1
	note __, 3
	octave 3
	note D_, 1
	note __, 3
	octave 2
	note G#, 1
	note __, 7
	octave 3
	note D_, 1
	note __, 7
	note F_, 1
	note __, 3
;Bar 9
	note B_, 1
	note __, 7
	note F#, 1
	note __, 3
	note B_, 1
	note __, 3
	note F#, 1
	note __, 3
	notetype 12, $77
	note F_, 2
	note F#, 2
	note G#, 2
;Bar 10
	note A#, 1
	note __, 15
;Bar 11
	note A#, 4
	notetype 6, $77
	note B_, 1
	note __, 3
	notetype 12, $77
	note D#, 3
	note __, 1
	notetype 6, $77
	note F#, 1
	note __, 7
	notetype 12, $77
	note D#, 1
	note F#, 1
;Bar 12
	notetype 6, $77
	note B_, 1
	note __, 3
	note F#, 1
	note __, 3
	note B_, 1
	note __, 3
	notetype 12, $77
	octave 4
	note C#, 4
	notetype 6, $77
	octave 3
	note B_, 1
	note __, 3
	octave 4
	note C#, 1
	note __, 3
	note D#, 1
	note __, 3
;Bar 13
	notetype 12, $77
	octave 3
	note A_, 3
	note __, 1
	notetype 6, $77
	note B_, 1
	note __, 3
	notetype 12, $77
	note D#, 3
	note __, 1
	notetype 6, $77
	note F#, 1
	note __, 7
	notetype 12, $77
	note D#, 1
	note F#, 1
;Bar 14
	notetype 6, $77
	note A_, 1
	note __, 3
	note D#, 1
	note __, 3
	note F#, 1
	note __, 3
	notetype 12, $77
	note B_, 4
	note A_, 4
	note F#, 1
	note A_, 1
;Bar 15
	note B_, 4
	notetype 6, $77
	note B_, 1
	note __, 3
	notetype 12, $77
	note E_, 2
	note __, 2
	notetype 6, $77
	note B_, 1
	note __, 7
	note E_, 1
	note __, 7
;Bar 16
	notetype 12, $77
	octave 2
	note F_, 1
	note __, 1
	octave 3
	note D_, 1
	note __, 1
	note F_, 1
	note __, 3
	note D_, 1
	note __, 3
	note G#, 1
	note __, 1
;Bar 17
	note B_, 4
	notetype 6, $77
	note F#, 1
	note __, 3
	notetype 12, $77
	octave 4
	note C#, 1
	octave 3
	note B_, 1
	notetype 6, $77
	note F#, 1
	note __, 3
	notetype 12, $77
	note F_, 2
	note F#, 2
	note G#, 2
;Bar 18
	note A#, 1
	note __, 7
	note E_, 2
	notetype 6, $87
	note C#, 1
	note __, 3
	note F#, 1
	note __, 3
	note E_, 1
	note __, 3
;Bar 19
	note D#, 1
	note __, 3
	octave 2
	note G_, 1
	note __, 3
	note A#, 1
	note __, 3
	note G_, 1
	note __, 7
	note A#, 1
	note __, 7
	octave 3
	note D#, 1
	note __, 7
;Bar 20
	octave 2
	note G_, 1
	note __, 3
	note A#, 1
	note __, 3
	note G_, 1
	note __, 7
	octave 3
	note D#, 1
	note __, 7
	octave 2
	note A#, 1
	note __, 3
;Bar 21
	octave 3
	note D#, 1
	note __, 3
	octave 2
	note G#, 1
	note __, 3
	note B_, 1
	note __, 3
	note G#, 1
	note __, 7
	octave 3
	note D#, 1
	note __, 7
	octave 2
	note B_, 1
	note __, 7
;Bar 22
	note G#, 1
	note __, 3
	note B_, 1
	note __, 3
	note G#, 1
	note __, 7
	octave 3
	note D#, 1
	note __, 7
	octave 2
	note G#, 1
	note __, 3
;Bar 23
	notetype 12, $87
	octave 3
	note G_, 1
	note __, 1
	notetype 6, $87
	note D#, 1
	note __, 3
	notetype 12, $87
	note G_, 1
	note __, 1
	notetype 6, $87
	note D#, 1
	note __, 3
	notetype 12, $87
	note A#, 2
	notetype 6, $87
	note A_, 1
	note __, 3
	note A#, 1
	note __, 3
	notetype 12, $87
	octave 4
	note D#, 2
;Bar 24
	notetype 6, $87
	octave 3
	note D#, 1
	note __, 3
	octave 2
	note A#, 1
	note __, 3
	notetype 12, $77
	octave 4
	note D#, 1
	note D_, 1
	notetype 6, $77
	note D#, 1
	note __, 3
	notetype 12, $77
	note F_, 1
	note E_, 1
	notetype 6, $77
	note F_, 1
	note __, 3
	notetype 12, $77
	note G_, 1
	note F#, 1
	notetype 6, $77
	note G_, 1
	note __, 3
;Bar 25
	notetype 12, $87
	note C#, 2
	notetype 6, $87
	octave 3
	note G#, 1
	note __, 3
	octave 4
	note D#, 1
	note __, 3
	notetype 12, $87
	octave 3
	note B_, 2
	note __, 2
	notetype 6, $87
	note D#, 1
	note __, 7
	note C#, 1
	note __, 7
;Bar 26
	octave 4
	note C#, 1
	note __, 3
	note D#, 1
	note __, 3
	notetype 12, $87
	octave 3
	note B_, 2
	note __, 2
	notetype 6, $87
	note D#, 1
	note __, 7
	octave 2
	note G#, 1
	note __, 3
;Bar 27
	octave 3
	note D#, 1
	note __, 3
	octave 2
	note B_, 1
	note __, 3
	octave 3
	note D#, 1
	note __, 3
	note G#, 1
	note __, 7
	note B_, 1
	note __, 7
	note D#, 1
	note __, 3
;Bar 28
	note D_, 1
	note __, 3
	octave 2
	note B_, 1
	note __, 3
	octave 3
	note D_, 1
	note __, 3
	note G#, 1
	note __, 7
	note F_, 1
	note __, 7
	note D_, 1
	note __, 3
;Bar 29
	note C#, 1
	note __, 3
	octave 2
	note F#, 1
	note __, 3
	note A#, 1
	note __, 3
	octave 3
	note C#, 1
	note __, 3
	note F#, 1
	note __, 3
	notetype 12, $77
	note B_, 2
	notetype 6, $77
	octave 4
	note C#, 1
	note __, 3
	octave 3
	note B_, 1
	note __, 3
;Bar 30
	notetype 12, $77
	octave 4
	note C#, 2
	notetype 6, $77
	octave 3
	note B_, 1
	note __, 7
	note A#, 1
	notetype 4, $77
	note __, 16
	note __, 12
	endchannel

; ============================================================================================================

Music_FriendlyShop_Ch2:
	dutycycle $1
	notetype 12, $a7
;Bar 1
	octave 4
	note F#, 1
	note __, 3
	note F#, 1
	note __, 3
	note F#, 1
	note __, 1
	note F#, 1
	note __, 3
	note F#, 1
	note __, 5
;Bar 2
	note F#, 6
	octave 3
	note F#, 2
	notetype 4, $97
	note G#, 2
	note __, 4
	note A#, 2
	note __, 4
;Bar 3
	notetype 12, $97
	octave 4
	note C#, 3
	octave 3
	note F#, 1
	notetype 4, $97
	octave 4
	note D#, 2
	note __, 4
	notetype 12, $97
	octave 3
	note B_, 4
	note __, 4
	note B_, 1
	octave 4
	note C#, 1
;Bar 4
	note D#, 2
	notetype 4, $97
	note D_, 2
	note __, 4
	note D#, 2
	note __, 4
	notetype 12, $97
	note E_, 4
	note __, 2
	note D#, 1
	note E_, 1
	notetype 4, $97
	note F#, 2
	note __, 4
;Bar 5
	notetype 12, $97
	note C#, 3
	octave 3
	note F#, 1
	notetype 4, $97
	octave 4
	note D#, 2
	note __, 4
	notetype 12, $97
	octave 3
	note B_, 4 ; WARNING: Rounded.
	note __, 4 ; WARNING: Rounded.
	note B_, 1
	octave 4
	note C#, 1
;Bar 6
	note D#, 2
	notetype 4, $97
	note D_, 2
	note __, 4
	note D#, 2
	note __, 4
	notetype 12, $97
	note G#, 4
	note __, 2
	note E_, 1
	note D#, 1
	notetype 4, $97
	note C#, 2
	note __, 4
;Bar 7
	notetype 12, $97
	note D#, 3
	octave 3
	note G#, 1
	notetype 4, $97
	octave 4
	note E_, 2
	note __, 4
	notetype 12, $97
	note C#, 4 ; WARNING: Rounded.
	note __, 8 ; WARNING: Rounded.
;Bar 8
	octave 3
	note G#, 6
	notetype 4, $97
	note A#, 2
	note __, 10
	note B_, 2
	note __, 10
;Bar 9
	notetype 12, $97
	octave 4
	note D#, 6
	note E_, 1
	note D#, 1
	notetype 4, $97
	note C#, 2
	note __, 4
	notetype 12, $97
	octave 3
	note B_, 2
	note A#, 2
	note B_, 2
;Bar 10
	octave 4
	note C#, 1
	note __, 7 ; WARNING: Rounded.
	;note A#, 0 | WARNING: Rounded down to 0
	notetype 4, $97
	note B_, 2
	note __, 4
	notetype 12, $97
	note F#, 2
	note E_, 2
	note D#, 2
;Bar 11
	note C#, 3
	octave 3
	note F#, 1
	notetype 4, $97
	octave 4
	note D#, 2
	note __, 4
	notetype 12, $97
	octave 3
	note B_, 4
	note __, 4
	note B_, 1
	octave 4
	note C#, 1
;Bar 12
	note D#, 3
	note __, 3
	note E_, 4
	note D#, 1
	note __, 1
	notetype 4, $97
	note E_, 2
	note __, 4
	note F#, 2
	note __, 4
;Bar 13
	notetype 12, $97
	note C#, 3
	octave 3
	note F#, 1
	notetype 4, $97
	octave 4
	note D#, 2
	note __, 4
	notetype 12, $97
	octave 3
	note B_, 4
	note __, 4
	note B_, 1
	octave 4
	note C#, 1
;Bar 14
	note D#, 3
	note __, 3 ; WARNING: Rounded.
	;note G_, 0 | WARNING: Rounded down to 0
	note G#, 4
	note F#, 4
	octave 3
	note B_, 1
	octave 4
	note C#, 1
;Bar 15
	note D#, 3
	octave 3
	note G#, 1
	notetype 4, $97
	octave 4
	note E_, 2
	note __, 4
	notetype 12, $97
	note C#, 5
	note __, 7
;Bar 16
	octave 3
	note G#, 2
	note G_, 2
	note G#, 2
	notetype 4, $97
	note A#, 2
	note __, 4
	notetype 12, $97
	note G#, 2
	note A#, 2
	note B_, 2 ; WARNING: Rounded.
;Bar 17
	octave 4
	;note D_, 0 | WARNING: Rounded down to 0
	note D#, 6
	note E_, 1
	note D#, 1
	notetype 4, $97
	note C#, 2
	note __, 4
	notetype 12, $97
	octave 3
	note B_, 2
	note A#, 2
	note B_, 2
;Bar 18
	octave 4
	note C#, 1
	note __, 11
	octave 3
	note B_, 1
	note __, 1
	octave 4
	note C#, 1
	note __, 1
;Bar 19
	note D#, 2
	note __, 2
	note D#, 2
	note __, 2
	note D#, 2
	note D_, 2
	notetype 6, $87
	note D#, 3
	note G#, 1
	notetype 12, $87
	note A#, 6
;Bar 20
	note G_, 1
	note __, 3
	note D#, 1
	note __, 3
	note C#, 1
	note __, 3
;Bar 21
	note C#, 3
	notetype 6, $77
	note C#, 1
	note D_, 1
	notetype 12, $87
	note D#, 1
	note __, 1
	octave 3
	note B_, 4
	note A#, 2
	note B_, 2
	octave 4
	note C#, 6
;Bar 22
	note D#, 2
	note G#, 4
	note __, 2
	octave 3
	note B_, 2
	octave 4
	note C#, 1
	note __, 1
;Bar 23
	note D#, 2
	note __, 2
	note D#, 2
	note __, 2
	note D#, 2
	note D_, 2
	notetype 6, $87
	note D#, 3
	note G#, 1
	notetype 12, $87
	note A#, 6
;Bar 24
	note G_, 1
	note F#, 1
	note G_, 1
	note __, 1
	note G#, 1
	note G_, 1
	note G#, 1
	note __, 1
	note A#, 1
	note A_, 1
	note A#, 1
	note __, 1
;Bar 25
	note A#, 4
	note B_, 1
	note __, 1
	note G#, 4
	note G_, 2
	note G#, 2
	note A#, 6
;Bar 26
	note B_, 1
	note __, 1
	notetype 6, $87
	note G#, 7
	octave 5
	note C_, 1
	notetype 12, $97
	note C#, 2
	octave 4
	note B_, 1
	note __, 1
	note A#, 1
	note __, 1
;Bar 27
	note B_, 13
	note __, 2
	notetype 6, $97
	note G#, 1
	note A#, 1
;Bar 28
	notetype 12, $97
	note B_, 10
	note G#, 2
	note A#, 1
	note __, 1
	note B_, 1
	note __, 1
;Bar 29
	note A#, 10
	note G#, 2
	note A#, 1
	note __, 1
	;note G#, 0 | WARNING: Rounded down to 0
	note __, 2
;Bar 30
	note A#, 2
	note G#, 1
	note __, 3
	note F#, 7 ; WARNING: Rounded.
	endchannel

; ============================================================================================================

Music_FriendlyShop_Ch3:
	notetype 12, $10
;Bar 1
	octave 4
	note D#, 1
	note __, 3
	note D#, 1
	note __, 3
	note D_, 1
	note __, 1
	note D_, 1
	note __, 3
	note C#, 1
	note __, 5
;Bar 2
	octave 3
	note F#, 5
	note __, 7
;Bar 3
	octave 2
	note B_, 4
	note __, 2
	notetype 4, $20
	note B_, 2
	note __, 4
	notetype 12, $20
	note F#, 4
	note __, 2
	notetype 4, $20
	note F#, 2
	note __, 4
;Bar 4
	notetype 12, $20
	note B_, 4
	note __, 2
	notetype 4, $20
	note B_, 2
	note __, 4
	notetype 12, $20
	note F#, 4
	note __, 2
	notetype 4, $20
	note F#, 2
	note __, 4
;Bar 5
	notetype 12, $20
	note B_, 4
	note __, 2
	notetype 4, $20
	note B_, 2
	note __, 4
	notetype 12, $20
	note F#, 4
	note __, 2
	notetype 4, $20
	note F#, 2
	note __, 4
;Bar 6
	notetype 12, $20
	note B_, 4
	note __, 2
	notetype 4, $20
	note B_, 2
	note __, 4
	notetype 12, $20
	note F#, 4
	note __, 2
	notetype 4, $20
	note F#, 2
	note __, 4
;Bar 7
	notetype 12, $20
	note E_, 4
	note __, 2
	notetype 4, $20
	note E_, 2
	note __, 4
	notetype 12, $20
	note B_, 4
	note __, 2
	notetype 4, $20
	note B_, 2
	note __, 4
;Bar 8
	notetype 12, $20
	note F_, 4
	note __, 2
	notetype 4, $20
	note F_, 2
	note __, 4
	notetype 12, $20
	note B_, 4
	note __, 2
	notetype 4, $20
	note B_, 2
	note __, 4
;Bar 9
	notetype 12, $20
	note F#, 4
	note __, 2
	notetype 4, $20
	note F#, 2
	note __, 4
	notetype 12, $20
	octave 3
	note F#, 4
	note __, 2
	notetype 4, $20
	note F#, 2
	note __, 4
;Bar 10
	notetype 12, $20
	octave 2
	note F#, 1
	note __, 15
;Bar 11
	note B_, 4
	notetype 6, $20
	octave 6
	note F#, 1
	note __, 3
	notetype 4, $20
	octave 2
	note B_, 2
	note __, 4
	notetype 12, $20
	note F#, 4
	notetype 6, $20
	octave 5
	note F#, 1
	note __, 3
	notetype 4, $20
	octave 2
	note F#, 2
	note __, 4
;Bar 12
	notetype 12, $20
	note B_, 4
	notetype 6, $20
	octave 6
	note F#, 1
	note __, 3
	notetype 4, $20
	octave 2
	note B_, 2
	note __, 4
	notetype 12, $20
	note F#, 4
	notetype 6, $20
	octave 5
	note F#, 1
	note __, 3
	notetype 4, $20
	octave 2
	note F#, 2
	note __, 4
;Bar 13
	notetype 12, $20
	note B_, 4
	notetype 6, $20
	octave 6
	note F#, 1
	note __, 3
	notetype 4, $20
	octave 2
	note B_, 2
	note __, 4
	notetype 12, $20
	note F#, 4
	notetype 6, $20
	octave 5
	note F#, 1
	note __, 3
	notetype 4, $20
	octave 2
	note F#, 2
	note __, 4
;Bar 14
	notetype 12, $20
	note B_, 4
	notetype 6, $20
	octave 6
	note F#, 1
	note __, 3
	notetype 4, $20
	octave 2
	note B_, 2
	note __, 4
	notetype 12, $20
	note F#, 4
	notetype 6, $20
	octave 5
	note F#, 1
	note __, 3
	notetype 4, $20
	octave 2
	note F#, 2
	note __, 4
;Bar 15
	notetype 12, $20
	note E_, 4
	notetype 6, $20
	octave 6
	note G#, 1
	note __, 3
	notetype 4, $20
	octave 2
	note E_, 2
	note __, 4
	notetype 12, $20
	note B_, 4
	notetype 6, $20
	octave 5
	note G#, 1
	note __, 3
	notetype 4, $20
	octave 2
	note B_, 2
	note __, 4
;Bar 16
	notetype 12, $20
	note F_, 4
	notetype 6, $20
	octave 6
	note G#, 1
	note __, 3
	notetype 4, $20
	octave 2
	note F_, 2
	note __, 4
	notetype 12, $20
	note B_, 4
	notetype 6, $20
	octave 5
	note G#, 1
	note __, 3
	notetype 4, $20
	octave 2
	note B_, 2
	note __, 4
;Bar 17
	notetype 12, $20
	note F#, 4
	notetype 6, $20
	octave 6
	note F#, 1
	note __, 3
	notetype 4, $20
	octave 2
	note F#, 2
	note __, 4
	notetype 12, $20
	octave 3
	note F#, 4
	notetype 6, $20
	octave 5
	note F#, 1
	note __, 3
	notetype 4, $20
	octave 3
	note F#, 2
	note __, 4
;Bar 18
	notetype 12, $20
	octave 2
	note F#, 1
	note __, 7
	octave 3
	note C#, 4
	octave 2
	note F#, 4
;Bar 19
	note D#, 4
	note __, 2
	notetype 4, $20
	note D#, 2
	note __, 4
	notetype 12, $20
	note G_, 4
	note __, 2
	notetype 4, $20
	note G_, 2
	note __, 4
;Bar 20
	notetype 12, $20
	note A#, 4
	note __, 2
	notetype 4, $20
	note A#, 2
	note __, 4
	notetype 12, $20
	note D#, 4
	note G_, 4
;Bar 21
	note G#, 4
	note __, 2
	notetype 4, $20
	note G#, 2
	note __, 4
	notetype 12, $20
	note G_, 4
	note __, 2
	notetype 4, $20
	note G_, 2
	note __, 4
;Bar 22
	notetype 12, $20
	note F#, 4
	note __, 2
	notetype 4, $20
	note F#, 2
	note __, 4
	notetype 12, $20
	note F_, 4
	note E_, 4
;Bar 23
	note D#, 4
	notetype 4, $20
	octave 4
	note A#, 2
	note __, 4
	octave 2
	note D#, 2
	note __, 4
	notetype 12, $20
	note G_, 4
	notetype 4, $20
	octave 4
	note G_, 2
	note __, 4
	octave 2
	note G_, 2
	note __, 4
;Bar 24
	notetype 12, $20
	note A#, 4
	notetype 4, $20
	octave 4
	note A#, 2
	note __, 4
	octave 2
	note A#, 2
	note __, 4
	notetype 12, $20
	note D#, 4
	note G_, 4
;Bar 25
	note G#, 4
	notetype 4, $20
	octave 6
	note D#, 2
	note __, 4
	octave 2
	note G#, 2
	note __, 4
	notetype 12, $20
	note G_, 4
	notetype 4, $20
	octave 6
	note D#, 2
	note __, 4
	octave 2
	note G_, 2
	note __, 4
;Bar 26
	notetype 12, $20
	note F#, 4
	notetype 4, $20
	octave 6
	note D#, 2
	note __, 4
	octave 2
	note F#, 2
	note __, 4
	notetype 12, $20
	note F_, 4
	notetype 4, $20
	octave 6
	note D#, 2
	note __, 4
	octave 2
	note F_, 2
	note __, 4
;Bar 27
	notetype 12, $20
	note E_, 4
	notetype 4, $20
	octave 6
	note G#, 2
	note __, 4
	octave 2
	note E_, 2
	note __, 4
	notetype 12, $20
	octave 1
	note B_, 4
	notetype 4, $20
	octave 5
	note G#, 2
	note __, 4
	octave 1
	note B_, 2
	note __, 4
;Bar 28
	notetype 12, $20
	octave 2
	note F_, 4
	notetype 4, $20
	octave 6
	note G#, 2
	note __, 4
	octave 2
	note F_, 2
	note __, 4
	notetype 12, $20
	octave 1
	note B_, 4
	notetype 4, $20
	octave 6
	note D_, 2
	note __, 4
	octave 1
	note B_, 2
	note __, 4
;Bar 29
	notetype 12, $20
	octave 2
	note F#, 4
	notetype 4, $20
	octave 6
	note F#, 2
	note __, 4
	octave 2
	note F#, 2
	note __, 4
	notetype 12, $20
	octave 3
	note C#, 4
	notetype 4, $20
	octave 5
	note F#, 2
	note __, 4
	octave 3
	note C#, 2
	note __, 4
;Bar 30
	notetype 12, $20
	octave 2
	note F#, 1
	note __, 1
	note F#, 1
	note __, 3
	note F#, 4
	notetype 4, $20
	note F#, 2
	note __, 4
	note G#, 2
	note __, 4
	note A#, 2
	notetype 12, $20
	note __, 1 ; WARNING: Rounded.
	endchannel

; ============================================================================================================

Music_FriendlyShop_Ch4:
	togglenoise 1 ; WARNING: this will sound bad.
	notetype 12
;Bar 1
	note D#, 4
	note D#, 4
	note D#, 2
	note D#, 4
	note D#, 6
;Bar 2
	note C#, 12
;Bar 3
	note F#, 4
	note D#, 2
	note C_, 2
	note C_, 2
	note D#, 2
	note C_, 2
	note C_, 2
;Bar 4
	note D#, 2
	note C_, 2
	note C_, 2
	note D#, 2
	note C_, 2
	note C_, 2
	note D#, 2
	note C_, 2
;Bar 5
	note D#, 2
	note C_, 2
	note D#, 2
	note C_, 2
	note C_, 2
	note D#, 2
	note C_, 2
	note C_, 2
;Bar 6
	note D#, 2
	note C_, 2
	note C_, 2
	note D#, 2
	note C_, 2
	note C_, 2
	note D#, 2
	note C_, 2
;Bar 7
	note D#, 2
	note C_, 2
	note D#, 2
	note C_, 2
	note C_, 2
	note D#, 2
	note C_, 2
	note C_, 2
;Bar 8
	note D#, 2
	note C_, 2
	note C_, 2
	note D#, 2
	note C_, 2
	note C_, 2
	note D#, 2
	note C_, 2
;Bar 9
	note D#, 2
	note C_, 2
	note D#, 2
	note C_, 2
	note C_, 2
	note D#, 2
	note C_, 2
	note C_, 2
;Bar 10
	note D#, 16
;Bar 11
	note D#, 2
	note C_, 2
	note D#, 2
	note C_, 2
	note C_, 2
	note D#, 2
	note C_, 2
	note C_, 2
;Bar 12
	note D#, 2
	note C_, 2
	note C_, 2
	note D#, 2
	note C_, 2
	note C_, 2
	note D#, 2
	note C_, 2
;Bar 13
	note D#, 2
	note C_, 2
	note D#, 2
	note C_, 2
	note C_, 2
	note D#, 2
	note C_, 2
	note C_, 2
;Bar 14
	note D#, 2
	note C_, 2
	note C_, 2
	note D#, 2
	note C_, 2
	note C_, 2
	note D#, 2
	note C_, 2
;Bar 15
	note D#, 2
	note C_, 2
	note D#, 2
	note C_, 2
	note C_, 2
	note D#, 2
	note C_, 2
	note C_, 2
;Bar 16
	note D#, 2
	note C_, 2
	note C_, 2
	note D#, 2
	note C_, 2
	note C_, 2
	note D#, 2
	note C_, 2
;Bar 17
	note D#, 2
	note C_, 2
	note D#, 2
	note C_, 2
	note C_, 2
	note D#, 2
	note C_, 2
	note C_, 2
;Bar 18
	note D#, 16
;Bar 19
	note C_, 4
	note D#, 2
	note C_, 2
	note C_, 4
	note D#, 2
	note C_, 2
;Bar 20
	note C_, 4
	note D#, 2
	note C_, 2
	note C_, 4
	note D#, 2
	note C_, 2
;Bar 21
	note C_, 4
	note D#, 2
	note C_, 2
	note C_, 4
	note D#, 2
	note C_, 2
;Bar 22
	note C_, 4
	note D#, 2
	note C_, 2
	note C_, 4
	note D#, 2
	note C_, 2
;Bar 23
	note C_, 4
	note D#, 2
	note C_, 2
	note C_, 4
	note D#, 2
	note C_, 2
;Bar 24
	note C_, 4
	note D#, 2
	note C_, 2
	note C_, 4
	note D#, 2
	note C_, 2
;Bar 25
	note C_, 4
	note D#, 2
	note C_, 2
	note C_, 4
	note D#, 2
	note C_, 2
;Bar 26
	note C_, 4
	note D#, 2
	note C_, 2
	note C_, 4
	note D#, 2
	note C_, 2
;Bar 27
	note C_, 4
	note D#, 2
	note C_, 2
	note C_, 4
	note D#, 2
	note C_, 2
;Bar 28
	note C_, 4
	note D#, 2
	note C_, 2
	note C_, 4
	note D#, 2
	note C_, 2
;Bar 29
	note C_, 4
	note D#, 2
	note C_, 2
	note C_, 4
	note D#, 2
	note C_, 2
;Bar 30
	note D#, 2
	note C_, 4
	note C_, 4
	note C_, 2
	note D#, 2
	notetype 6
	note D#, 1
	notetype 4
	note __, 4
	endchannel

; ============================================================================================================

